HIERARCHY
ROOT Hips
{
  OFFSET 0 0 0
  CHANNELS 6 Xposition Yposition Zposition Zrotation Yrotation Xrotation
  JOINT LeftThigh
  {
    OFFSET 8.409438 0 -5.917753
    CHANNELS 3 Zrotation Yrotation Xrotation
    JOINT LeftLeg
    {
      OFFSET 0 0 -42.358652
      CHANNELS 3 Zrotation Yrotation Xrotation
      JOINT LeftFoot
      {
        OFFSET 0 0 -39.357303
        CHANNELS 3 Zrotation Yrotation Xrotation
      }
    }
  }
  JOINT RightThigh
  {
    OFFSET -8.409438 0 -5.917753
    CHANNELS 3 Zrotation Yrotation Xrotation
    JOINT RightLeg
    {
      OFFSET 0 0 -42.358652
      CHANNELS 3 Zrotation Yrotation Xrotation
      JOINT RightFoot
      {
        OFFSET 0 0 -39.357303
        CHANNELS 3 Zrotation Yrotation Xrotation
      }
    }
  }
  JOINT SpineLow
  {
    OFFSET 0 0 4.719101
    CHANNELS 3 Zrotation Yrotation Xrotation
    JOINT SpineMid
    {
      OFFSET 0 0 12.899191
      CHANNELS 3 Zrotation Yrotation Xrotation
      JOINT Chest
      {
        OFFSET 0 0 12.899191
        CHANNELS 3 Zrotation Yrotation Xrotation
        JOINT LeftShoulder
        {
          OFFSET 7.550562 1.41573 9.438202
          CHANNELS 3 Zrotation Yrotation Xrotation
          JOINT LeftArm
          {
            OFFSET 9.155056 0 4.247191
            CHANNELS 3 Zrotation Yrotation Xrotation
            JOINT LeftForearm
            {
              OFFSET 0 0 25.771955
              CHANNELS 3 Zrotation Yrotation Xrotation
              JOINT LeftHand
              {
                OFFSET 0 0 25.197169
                CHANNELS 3 Zrotation Yrotation Xrotation
              }
            }
          }
        }
        JOINT RightShoulder
        {
          OFFSET -7.550562 1.41573 9.438202
          CHANNELS 3 Zrotation Yrotation Xrotation
          JOINT RightArm
          {
            OFFSET -9.155056 0 4.247191
            CHANNELS 3 Zrotation Yrotation Xrotation
            JOINT RightForearm
            {
              OFFSET 0 0 -25.771955
              CHANNELS 3 Zrotation Yrotation Xrotation
              JOINT RightHand
              {
                OFFSET 0 0 -25.197169
                CHANNELS 3 Zrotation Yrotation Xrotation
              }
            }
          }
        }
        JOINT Neck
        {
          OFFSET 0 0 15.101124
          CHANNELS 3 Zrotation Yrotation Xrotation
          JOINT Head
          {
            OFFSET 0 0 11.325843
            CHANNELS 3 Zrotation Yrotation Xrotation
            End Site
            {
              OFFSET 0 0 14.157303
            }
          }
        }
      }
    }
  }
}
MOTION
Frames: 11
Frame Time: 0.0
0.0  101.685394  0.0  3.214947  31.595281  -93.74897  -0.936002  -14.573197  0.504892  -18.674414  9.13975  18.397268  0.873824  3.68251  2.516223  -27.66685  16.452548  -6.528791  -19.236384  11.492764  17.484406  15.62547  6.174  -2.293111  -1.581135  0.069349  1.344373  -4.316509  0.277244  3.66839  -4.316509  0.277244  3.66839  22.527362  13.445107  20.344227  159.533574  14.622819  173.96426  -23.961271  -8.68627  125.017751  66.769584  -4.421335  17.079122  28.322775  -7.611374  27.422885  93.340911  74.01484  36.65116  -73.043796  57.74674  -83.923677  76.936656  13.521539  33.765684  -4.102532  1.809745  -4.229907  -3.064289  1.385854  -3.160184  
0.0  101.685394  0.0  3.574284  33.659752  -93.054893  -3.33451  -14.047729  -0.466762  -18.400548  9.334732  19.082228  0.964795  3.675313  2.425216  -28.625666  16.747298  -6.940379  -21.063208  11.755415  17.561291  16.22176  6.384935  -2.330363  -1.721428  0.120283  1.295586  -4.697415  0.420648  3.530778  -4.697414  0.420648  3.530778  22.644358  13.471882  20.090889  157.701263  15.167016  174.997773  -24.781364  -9.118941  124.060838  66.420231  -4.467374  17.317166  28.486515  -7.808793  27.328255  90.497908  74.498852  33.965379  -73.333434  58.131704  -84.233579  77.080224  13.428717  34.029581  -4.435849  1.813496  -4.28179  -3.314093  1.391365  -3.198108  
0.0  101.685394  0.0  3.642569  34.953695  -92.73604  -5.307518  -13.816286  -1.236174  -17.782527  9.484811  19.853341  1.066608  3.709198  2.387873  -28.491799  16.895007  -7.005415  -21.883595  11.846188  18.122297  15.995152  6.616608  -2.467927  -1.758632  0.137745  1.284841  -4.798241  0.469536  3.49989  -4.798241  0.469536  3.49989  22.835942  13.513742  19.822476  156.890594  15.193934  175.893517  -24.765475  -10.222822  123.831366  65.869311  -4.721127  17.593426  28.586702  -7.954047  27.193264  87.645376  74.776451  31.025253  -73.829874  58.582368  -84.659272  77.232861  13.396941  34.230853  -4.734587  1.790097  -4.284493  -3.538306  1.37594  -3.199465  
0.0  101.685394  0.0  3.693645  35.991945  -92.4289  -7.078863  -13.615201  -1.983795  -16.544588  9.553029  21.000444  0.905958  3.685115  2.206823  -28.188891  16.951886  -7.180354  -22.467112  12.013265  18.86982  15.748988  6.923724  -2.639637  -1.756717  0.163095  1.297724  -4.791567  0.539595  3.533276  -4.791567  0.539595  3.533276  22.918149  13.597977  19.355014  156.097357  15.337537  176.914983  -24.763666  -11.549514  123.534754  65.320869  -5.163914  18.087166  28.94207  -8.212255  26.950847  84.205909  75.01422  27.705124  -74.504402  58.995069  -85.242848  77.495736  13.452441  34.175251  -5.106707  1.723867  -4.306731  -3.817816  1.329073  -3.215664  
0.0  101.685394  0.0  3.669364  36.571427  -92.227597  -8.451508  -13.561336  -2.58287  -15.62242  9.641459  21.749471  0.943579  3.746666  2.16223  -27.502592  16.750016  -7.40181  -22.681023  12.371108  19.715721  15.518138  7.333405  -2.769265  -1.713498  0.180387  1.317615  -4.672363  0.585919  3.586799  -4.672363  0.585919  3.586798  23.011782  13.824486  18.748952  155.445668  15.647855  177.935321  -24.7462  -13.060621  123.139253  64.902469  -5.768373  18.869905  29.084857  -8.341909  26.681598  81.180863  75.041359  24.395578  -75.244358  59.292417  -85.906863  77.845705  13.535134  33.801155  -5.379179  1.666014  -4.246014  -4.022754  1.287073  -3.16991  
0.0  101.685394  0.0  3.63721  36.700519  -92.075123  -9.493608  -13.565833  -3.070927  -14.588989  9.655719  22.453285  1.001027  3.851154  2.140053  -26.29314  16.608056  -7.62933  -22.822265  12.63982  20.718107  15.119322  7.806471  -2.890668  -1.634821  0.207955  1.340606  -4.455649  0.658499  3.648545  -4.455649  0.658499  3.648545  23.101006  14.17245  17.997326  155.045317  16.238501  178.909064  -24.661311  -14.706946  122.636125  64.660389  -6.542109  19.656672  29.379266  -8.483202  26.485954  83.746271  73.841035  24.23873  -77.835448  61.646072  -86.568832  78.479131  13.5608  33.275505  -5.70465  1.67361  -4.152277  -4.267045  1.294169  -3.098681  
0.0  101.685394  0.0  3.592792  36.310911  -91.956885  -10.054883  -13.544531  -3.304624  -13.74411  9.603756  22.884451  1.112355  3.974666  2.145643  -25.147625  16.216494  -8.344103  -22.11559  13.16509  22.080626  14.614889  8.240443  -2.994882  -1.509925  0.232856  1.345946  -4.11295  0.719968  3.662958  -4.11295  0.719968  3.662959  23.176155  14.69509  17.339684  154.955398  17.129136  179.927022  -24.418339  -16.559674  121.995448  64.421434  -7.511363  19.903352  29.667505  -8.608387  26.394687  81.26319  73.711045  21.141304  -78.616288  61.735374  -87.207333  78.977276  13.805081  32.275617  -5.817975  1.660794  -3.952683  -4.35265  1.283424  -2.948808  
0.0  101.685394  0.0  3.505391  35.539911  -91.770795  -10.379066  -13.488273  -3.478029  -13.242613  9.476913  22.995615  1.525691  4.181428  2.275232  -24.195402  15.816373  -9.40653  -20.95759  13.576181  23.673217  14.118683  8.622989  -3.100906  -1.36103  0.263017  1.321848  -3.704751  0.792781  3.597182  -3.704751  0.792781  3.597182  23.215668  15.296473  16.737909  155.115102  18.322145  -179.017885  -24.016442  -18.417977  121.229653  64.216352  -8.595863  19.432424  29.957189  -8.827952  26.353122  79.357863  73.507229  18.408304  -79.091739  61.761357  -87.486855  80.237509  14.123656  31.517144  -5.863817  1.639915  -3.723452  -4.387763  1.265854  -2.776964  
0.0  101.685394  0.0  3.414152  34.540664  -91.615309  -10.496936  -13.318891  -3.498967  -12.769559  9.283463  23.182022  1.96413  4.327332  2.268472  -23.75301  15.415677  -10.695829  -19.448668  13.894191  25.29217  13.901777  9.010455  -3.143036  -1.220347  0.285013  1.301317  -3.319419  0.844209  3.541775  -3.319419  0.844209  3.541775  23.260766  16.122435  16.26004  155.459148  19.772614  -177.869035  -23.480801  -20.043828  120.486693  64.139179  -9.535241  18.481387  30.250945  -9.041884  26.312475  78.467595  73.232083  16.481243  -79.210779  61.854872  -87.222069  80.735376  14.937196  30.118748  -5.810495  1.668432  -3.557963  -4.348024  1.285339  -2.652702  
0.0  101.685394  0.0  3.350175  33.145294  -91.515337  -10.351999  -13.02935  -3.461605  -12.286133  9.017396  23.393718  2.529749  4.479652  2.309579  -23.624792  14.99233  -12.16407  -17.668249  14.160437  26.837735  14.013523  9.33768  -3.08169  -1.093287  0.308825  1.294669  -2.971046  0.902174  3.524258  -2.971046  0.902174  3.524259  23.480242  17.088661  15.721187  155.868077  21.279449  -176.748666  -23.007022  -21.288424  119.785166  64.159807  -10.287064  17.517744  30.680657  -9.173565  26.1951  78.657128  72.725792  15.328456  -79.031795  61.810407  -86.630842  81.180282  15.798063  28.827313  -5.543078  1.745398  -3.468833  -4.147237  1.34069  -2.585841  
0.0  101.685394  0.0  3.310505  31.229082  -91.419169  -9.638368  -12.757253  -3.261338  -11.787264  8.739056  23.475842  2.939551  4.618382  2.315077  -23.721027  14.538282  -13.819855  -15.684421  14.384638  28.243454  14.254086  9.518316  -2.957213  -0.964132  0.313119  1.280726  -2.61808  0.90649  3.487816  -2.61808  0.90649  3.487816  23.826258  18.160624  15.081868  156.338439  22.625877  -175.73617  -22.645497  -22.263238  119.045514  64.17327  -10.966297  16.605972  31.161122  -9.181322  26.021734  79.962464  71.832674  14.975723  -78.748614  61.73793  -85.913482  81.299777  16.601361  27.567973  -5.054016  1.954572  -3.41547  -3.779358  1.494347  -2.545392  
